# xmcd CD database file
#
# Track frame offsets:
#	150
#	21175
#	42830
#	62181
#	85729
#	104869
#	119009
#	140390
#
# Disc length: 2280 seconds
#
# Revision: 1
# Processed by: cddbd v1.5.1PL2 Copyright (c) Steve Scherf et al.
# Submitted via: CDex 1.51
#
DISCID=7108e608
DTITLE=Marianne Faithfull - Broken English
DYEAR=1979
DGENRE=Pop
TTITLE0=Broken English
TTITLE1=Witche's Song
TTITLE2=Brain Drain
TTITLE3=Guilt
TTITLE4=Ballad Of Lucy Jordan
TTITLE5=What's The Hurry
TTITLE6=Working Class Hero
TTITLE7=Why D'ya Do It
EXTD=YEAR: 1979
EXTT0=
EXTT1=
EXTT2=
EXTT3=
EXTT4=
EXTT5=
EXTT6=
EXTT7=
PLAYORDER=
